<?xml version="1.0" encoding="utf-8"?>
<!-- Generator: Adobe Illustrator 17.1.0, SVG Export Plug-In . SVG Version: 6.00 Build 0)  -->
<!DOCTYPE svg PUBLIC "-//W3C//DTD SVG 1.1//EN" "http://www.w3.org/Graphics/SVG/1.1/DTD/svg11.dtd">
<svg version="1.1" id="Layer_1" xmlns="http://www.w3.org/2000/svg" xmlns:xlink="http://www.w3.org/1999/xlink" x="0px" y="0px"
	 viewBox="0 0 144 36" enable-background="new 0 0 144 36" xml:space="preserve">
<g>
	<path fill="#FFFFFF" d="M29.106,34.899l-0.267,0.113l-0.005,0.002l-0.006-0.002c-2.008-0.803-3.978-1.7-5.921-2.656
		c-1.945-0.951-3.867-1.955-5.754-3.033c-1.875-1.097-3.716-2.264-5.481-3.566c-1.753-1.314-3.448-2.752-4.85-4.571
		c-0.345-0.46-0.662-0.951-0.941-1.479c-0.276-0.566-0.472-1.07-0.663-1.566l-0.292-0.755l-0.073-0.189l-0.08-0.265L4.66,16.544
		l-0.227-0.777l-0.112-0.948c-0.113-0.646,0.008-1.241,0.048-1.857c0.033-0.305,0.149-0.597,0.224-0.897
		c0.085-0.298,0.159-0.6,0.316-0.869c0.471-1.162,1.352-2.088,2.303-2.864C7.739,8.018,8.24,7.636,8.828,7.45
		C9.115,7.344,9.397,7.213,9.69,7.133l0.896-0.186c0.298-0.077,0.6-0.097,0.904-0.099l0.909-0.028
		c0.595,0.068,1.202,0.119,1.782,0.257c1.159,0.295,2.26,0.759,3.255,1.373c0.475,0.335,0.995,0.622,1.428,1.002l1.292,1.152
		l-1.683,0.479c0.284-1.117,0.635-2.127,1.066-3.153c0.426-1.017,0.928-2.013,1.564-2.953c0.608-0.949,1.386-1.833,2.331-2.566
		c0.917-0.776,2.163-1.208,3.386-1.346c0.618,0.006,1.25-0.039,1.825,0.142c0.317,0.074,0.536,0.115,0.931,0.222l0.733,0.295
		c1.153,0.531,2.066,1.259,2.836,2.157c0.757,0.912,1.336,1.903,1.663,3.096c0.105,0.531,0.292,0.984,0.33,1.578
		c0.051,0.574,0.12,1.159,0.141,1.721c-0.014,1.092-0.028,2.181-0.162,3.247c-0.074,1.078-0.286,2.124-0.444,3.182
		c-0.221,1.042-0.4,2.094-0.662,3.123c-0.242,1.034-0.492,2.065-0.786,3.084c-0.572,2.041-1.211,4.058-1.896,6.058
		C30.657,30.97,29.917,32.95,29.106,34.899z M29.106,34.899c0.611-2.02,1.177-4.051,1.724-6.083c0.541-2.034,1.034-4.08,1.457-6.136
		c0.222-1.026,0.43-2.053,0.612-3.083c0.206-1.027,0.329-2.064,0.494-3.094c0.094-1.035,0.264-2.067,0.298-3.097
		c0.093-1.033,0.065-2.053,0.044-3.069c-0.038-0.49-0.113-0.951-0.16-1.426c-0.008-0.229-0.078-0.482-0.156-0.738l-0.214-0.761
		c-0.26-0.828-0.762-1.706-1.374-2.388c-0.607-0.694-1.411-1.27-2.179-1.612l-0.74-0.279c-0.12-0.006-0.416-0.075-0.614-0.113
		c-0.444-0.142-0.878-0.069-1.312-0.081c-0.841,0.142-1.681,0.396-2.383,1.003c-0.712,0.562-1.354,1.279-1.874,2.11
		c-0.542,0.81-0.99,1.708-1.369,2.637c-0.381,0.918-0.712,1.91-0.941,2.838l-0.401,1.623l-1.282-1.145L17.612,11
		c-0.374-0.336-0.812-0.57-1.213-0.864c-0.837-0.525-1.741-0.908-2.673-1.156c-0.466-0.114-0.944-0.15-1.416-0.217
		c-0.468,0.044-0.955-0.032-1.41,0.092l-0.691,0.134C9.985,9.048,9.775,9.153,9.555,9.23C9.099,9.356,8.739,9.661,8.327,9.874
		c-0.71,0.573-1.397,1.231-1.754,2.088c-0.13,0.194-0.181,0.421-0.248,0.641c-0.057,0.223-0.16,0.435-0.186,0.666
		c-0.028,0.458-0.148,0.939-0.067,1.367l0.04,0.664l0.21,0.782l0.105,0.391l0.026,0.098l0.013,0.049l0.007,0.024l0.003,0.012
		c0.022,0.067-0.026-0.078-0.019-0.059l0.069,0.19l0.276,0.761c0.18,0.518,0.362,1.025,0.545,1.437
		c0.211,0.435,0.463,0.862,0.751,1.277c1.174,1.657,2.755,3.102,4.391,4.446c1.645,1.348,3.397,2.587,5.192,3.761
		c1.787,1.191,3.621,2.32,5.486,3.399c1.869,1.072,3.758,2.116,5.672,3.117l-0.01,0L29.106,34.899z"/>
</g>
<g>
	<path fill="none" d="M24.719,15.439"/>
</g>
<g>
	<path fill="#FFFFFF" d="M8.328,13.917c0,0,0.033-0.092,0.095-0.266c0.072-0.169,0.123-0.441,0.324-0.726
		c0.153-0.317,0.431-0.629,0.76-0.996c0.194-0.151,0.401-0.313,0.619-0.482c0.249-0.117,0.498-0.284,0.783-0.407
		c0.577-0.209,1.26-0.397,2.005-0.354c0.203,0.016,0.34-0.007,0.61,0.046c0.171,0.037,0.343,0.074,0.518,0.111l0.264,0.058
		l0.3,0.126c0.202,0.087,0.413,0.178,0.614,0.285c0.728,0.456,1.412,1.109,1.83,1.98c0.174,0.443,0.371,0.904,0.385,1.406
		c0.022,0.247,0.066,0.497,0.016,0.745l-0.048,0.373l-0.027,0.186l-0.014,0.093l-0.007,0.046l-0.004,0.023l-0.002,0.012
		c-0.015,0.05,0.031-0.095-0.034,0.115c-0.16,0.376-0.211,0.69-0.573,1.203c-0.293,0.502-0.665,0.782-1.033,1.097
		c-0.783,0.564-1.691,0.824-2.549,0.877c-0.861-0.014-1.676-0.167-2.329-0.533c-0.297-0.124-0.615-0.359-0.897-0.576
		c-0.302-0.191-0.483-0.473-0.708-0.686c-0.196-0.241-0.332-0.51-0.497-0.73c-0.111-0.253-0.217-0.493-0.316-0.719
		c-0.116-0.479-0.21-0.886-0.193-1.237c-0.041-0.346,0.045-0.611,0.062-0.793C8.313,14.014,8.328,13.917,8.328,13.917z
		 M8.328,13.917c0,0-0.013,0.097-0.036,0.28c-0.009,0.183-0.1,0.449-0.034,0.79c0.028,0.169,0.019,0.361,0.083,0.557
		c0.065,0.195,0.142,0.403,0.227,0.62c0.123,0.198,0.254,0.409,0.392,0.631c0.18,0.19,0.358,0.398,0.576,0.572
		c0.242,0.143,0.456,0.359,0.729,0.451c0.265,0.108,0.504,0.226,0.864,0.28c0.598,0.165,1.247,0.076,1.844-0.044
		c0.593-0.193,1.137-0.489,1.576-0.888c0.426-0.523,0.605-0.678,0.896-1.576c-0.064,0.204-0.017,0.053-0.032,0.097l0.001-0.007
		l0.002-0.013l0.003-0.026l0.007-0.053l0.015-0.105l0.035-0.21c0.043-0.14,0.008-0.282,0.012-0.425
		c0.022-0.289-0.082-0.566-0.126-0.859c-0.195-0.56-0.534-1.079-0.966-1.529c-0.111-0.086-0.22-0.173-0.329-0.27l-0.166-0.146
		l-0.239-0.122c-0.159-0.081-0.317-0.16-0.473-0.239c-0.063-0.038-0.27-0.086-0.399-0.129c-0.589-0.206-1.199-0.183-1.755-0.105
		c-0.274,0.053-0.53,0.15-0.779,0.233c-0.227,0.13-0.442,0.254-0.644,0.371c-0.176,0.152-0.345,0.296-0.494,0.438
		c-0.149,0.141-0.233,0.314-0.338,0.449c-0.221,0.269-0.268,0.547-0.348,0.712C8.363,13.825,8.328,13.917,8.328,13.917z"/>
</g>
<text transform="matrix(0.9326 0 0 1 98.5476 24.5716)" fill="#FFFFFF" font-family="'EdwardianScriptITC'" font-size="24.5494">Spice</text>
<text transform="matrix(1 0 0 1 88.0913 25.5149)" fill="#FFFFFF" font-family="'Constantia'" font-size="18.4788">&amp;</text>
<text transform="matrix(0.9326 0 0 1 38.9273 24.5718)" fill="#FFFFFF" font-family="'EdwardianScriptITC'" font-size="25.2459">Sugar  </text>
</svg>
