<?xml version="1.0" encoding="utf-8"?>
<!-- Generator: Adobe Illustrator 17.1.0, SVG Export Plug-In . SVG Version: 6.00 Build 0)  -->
<!DOCTYPE svg PUBLIC "-//W3C//DTD SVG 1.1//EN" "http://www.w3.org/Graphics/SVG/1.1/DTD/svg11.dtd">
<svg version="1.1" id="Layer_1" xmlns="http://www.w3.org/2000/svg" xmlns:xlink="http://www.w3.org/1999/xlink" x="0px" y="0px"
	 viewBox="0 36 144 72" enable-background="new 0 36 144 72" xml:space="preserve">
<g>
	<path fill="none" d="M22.5,103"/>
</g>
<g enable-background="new    ">
	<path fill="#FFFFFF" d="M67.9,68.4c0,0.7-0.1,1.6-0.3,2.5s-0.3,1.5-0.6,1.5c-0.1,0-0.1,0-0.1-0.1V72c0.3-1,0.6-2.2,0.6-3.5
		c0-1.7-0.6-3.5-1.6-4.5c-1-1-2.3-1.6-4.1-1.6c-2.3,0-4.7,0.7-7,2.3c2,1.7,3.1,3.8,3.1,6.1c0,2-0.7,3.6-2.2,4.8
		c-1.5,1.3-2.9,2.2-4.7,2.2c-0.7,0-1.6-0.1-2.3-0.6c-0.9-0.3-1.3-0.6-1.3-0.9c0,0,0-0.1,0.1-0.1c0,0,0.1,0,0.3,0.1
		c0.9,0.6,1.7,0.7,2.5,0.7c1.6,0,2.9-0.7,3.9-2.2c1-1.5,1.6-3.2,1.6-5.2c0-1.7-0.6-3.2-1.7-4.7c-3.1,2.3-5.8,6.7-8.5,12.7
		c-1.6,3.6-3.1,6.3-4.5,7.9c-1.5,1.6-3.2,3.1-5.8,4.4c-2.9,1.5-5.4,2.3-7.7,2.3c-1.7,0-3.5-0.6-4.7-1.5c-1.3-0.9-1.7-2-1.7-3.5
		c0-0.7,0.1-1.5,0.7-2c0.6-0.6,0.9-0.9,1.5-0.9c0.9,0,1.3,0.6,1.3,1.5c0,0.6-0.1,0.9-0.3,1.3c-0.3,0.3-0.7,0.6-1,0.6
		c-0.7,0-1-0.3-1-1.3c0-0.3,0-0.6,0-0.6c-0.1,0-0.3,0.3-0.3,1.3c0,1.3,0.6,2.2,1.6,3.1c1,0.9,2.5,1.3,4.4,1.3c3.1,0,5.8-1.3,8.3-3.6
		c1-1,2-2.2,2.8-3.2c0.9-1.3,2.8-4.1,5.4-8.6c1.5-2.2,3.1-4.5,4.8-6.9c1.7-2.3,3.5-3.9,4.8-4.8c-2.2-2-5.4-2.9-9.6-2.9
		c-5.8,0-10.8,2.3-15.2,6.9c-3.6,3.8-5.2,7.3-5.2,10.5c0,1.6,0.6,3.1,1.5,3.9c1,0.9,2.3,1.5,3.9,1.5c2.8,0,5.5-1.5,8.6-4.4
		c2.9-2.9,4.5-5.5,4.5-8.3c0-2.2-1-3.2-3.1-3.2c-2,0-4.1,1.7-6.6,4.1c-2.3,2.5-3.6,4.7-3.6,6.9c0,0.6,0.1,1,0.6,1.5
		c0.3,0.3,0.7,0.6,1,0.6c0.1,0,0.3,0,0.3,0.1s-0.1,0.1-0.3,0.1c-0.7,0-1.3-0.3-1.6-0.9c-0.6-0.7-0.7-1.5-0.7-2.3
		c0-2.3,1.3-4.5,3.6-6.7s4.8-3.2,7.3-3.2c2.5,0,3.6,1.3,3.6,3.6c0,2.9-1.5,5.8-4.5,8.6c-3.1,2.9-6,4.4-9,4.4c-2,0-3.5-0.6-4.7-1.7
		c-1-1.3-1.7-2.9-1.7-5.1c0-4.1,2.2-7.9,6.7-11.5c4.4-3.5,9.3-5.2,14.6-5.2c4.1,0,7.4,0.9,10.4,2.9c2.5-1.6,5.1-2.5,7.4-2.5
		c1.7,0,3.5,0.6,4.5,1.7C67.5,65,67.9,66.6,67.9,68.4z"/>
	<path fill="#FFFFFF" d="M67.6,84.7c0,0.3-1,1.7-3.1,4.4c-1.6,2.2-2.9,3.2-3.8,3.2c-0.7,0-1-0.1-1.6-0.7c-0.6-0.6-0.6-1-0.6-2
		c0-0.7,0.1-1.6,0.7-2.5c-1.5,2.2-2.5,3.5-3.2,4.1c-0.7,0.7-1.5,1-2.2,1s-1.3-0.3-1.7-1c-0.4-0.7-0.7-1.5-0.7-2.5
		c0-2.9,1.7-5.4,5.5-7.6c1.6-0.9,2.9-1.5,3.9-1.5c0.9,0,1.3,0.3,1.3,1.3c0,0.1,0,0.6-0.1,1l1-2.2c0.3,0.1,0.7,0.1,1,0.1
		s0.9,0,1.5-0.1l-3.6,6.6c-1.3,2.3-2,3.8-2,4.5c0,0.7,0.1,1,0.7,1s1.5-0.7,2.8-2c1.3-1.3,2.5-3.1,3.8-5.1
		C67.2,84.7,67.5,84.6,67.6,84.7C67.5,84.6,67.6,84.7,67.6,84.7z M61.8,81.1c0-0.7-0.3-1-0.9-1c-1.3,0-2.9,1.3-5.1,3.9
		c-2,2.8-3.1,4.8-3.1,6.6c0,0.9,0.3,1.5,1.3,1.5s2.5-1.6,4.8-5.1C60.9,84,61.8,81.9,61.8,81.1z"/>
	<path fill="#FFFFFF" d="M84.2,84.7c0,0.3-1,1.7-3.1,4.4c-1.6,2.2-2.9,3.2-3.9,3.2c-0.6,0-1-0.1-1.6-0.7c-0.3-0.6-0.7-1-0.7-2
		c0-0.7,0.1-1.3,0.3-1.7c0.1-0.6,0.9-1.6,2-3.5c1-1.7,1.6-2.9,1.6-3.5c0-0.6-0.3-0.9-0.9-0.9c-2,0-5.1,3.9-9.3,12.1
		c-0.7,0-1,0-1.3,0c-0.6,0-0.9,0-1.5,0l3.2-5.4c1.7-3.1,2.8-5.1,2.8-6c0-0.3-0.1-0.7-0.6-0.7c-0.7,0-2.2,1.6-4.1,4.8
		C67,84.8,67,85,66.9,85c0,0-0.1,0-0.1-0.1v-0.1l0.1-0.4c2.2-3.1,3.6-4.5,4.4-4.5c0.6,0,0.9,0.1,1.3,0.7c0.3,0.6,0.6,1,0.6,1.6
		c0,0.9-0.6,2.3-1.6,3.9c1.6-2.3,2.9-4.1,3.8-4.8c0.9-0.7,1.6-1.3,2.5-1.3c0.6,0,1,0.1,1.6,0.7c0.3,0.6,0.6,1.3,0.6,2
		c0,0.9-0.7,2.5-2,4.5c-1.3,2.2-2,3.5-2,3.9c0,0.6,0.3,0.9,0.9,0.9c1.3,0,3.5-2.3,6.3-7C83.8,84.7,84.1,84.6,84.2,84.7
		C84.2,84.6,84.2,84.7,84.2,84.7z"/>
	<path fill="#FFFFFF" d="M91.8,79.6L91.7,80h-2.8l-4.7,8.5c-0.6,1-0.9,1.7-0.9,2.5s0.3,1,0.9,1c1.3,0,3.5-2.3,6.3-7
		c0.1-0.1,0.1-0.1,0.1-0.1s0.1,0,0.1,0.1c0,0,0,0.1-0.1,0.3l-0.9,1.3c-2.5,3.8-4.5,5.8-6,5.8c-0.7,0-1.3-0.1-1.6-0.7s-0.7-1-0.7-1.7
		c0-0.9,0.3-2,1-3.2l3.5-6.3h-2.2l0.1-0.3h2l2.3-4.4C88.6,76,89,76,89.6,76c0.3,0,0.7,0,1.3-0.1l-2.3,4.4h3.2
		C91.8,80.2,91.8,79.6,91.8,79.6z"/>
	<path fill="#FFFFFF" d="M103.5,84.7c0,0.1-0.3,0.7-1.3,1.6c-1.3,1.3-2.3,2-3.5,2c-0.3,0-0.7,0-1-0.1c-1.7,2.8-3.6,4.1-5.2,4.1
		c-0.9,0-1.6-0.3-2.2-1c-0.6-0.7-0.9-1.6-0.9-2.8c0-2.3,1.5-4.5,4.1-6.7c2-1.5,3.6-2.2,4.8-2.2c1.3,0,1.7,0.7,1.7,2
		c0,1.6-0.9,3.8-2.5,6.1c0.3,0.1,0.6,0.1,0.9,0.1c0.6,0,1.3-0.3,2.2-0.9c0.9-0.6,1.5-1.5,2-2.2C103.2,84.7,103.3,84.6,103.5,84.7
		C103.5,84.6,103.5,84.7,103.5,84.7z M100.1,81.6c0-1.3-0.6-1.7-1.5-1.7c-1.3,0-2.8,1.3-4.7,3.8c-1.9,2.5-2.8,4.7-2.8,6.6
		c0,1,0.6,1.6,1.5,1.6c1.5,0,3.1-1.3,4.8-3.9c-0.3-0.6-0.6-0.9-0.6-1.5c0-0.7,0.1-1.5,0.7-2.2c0.6-0.7,1-1,1.6-1
		c0.1,0,0.3,0.1,0.6,0.3C100.1,82.8,100.1,82.4,100.1,81.6z"/>
	<path fill="#FFFFFF" d="M120.1,84.7c0,0.3-1,1.7-3.1,4.4c-1.6,2.2-2.9,3.2-3.9,3.2c-0.6,0-1-0.1-1.6-0.7c-0.3-0.6-0.7-1-0.7-2
		c0-0.7,0.1-1.3,0.3-1.7c0.1-0.6,0.9-1.6,2-3.5c1-1.7,1.6-2.9,1.6-3.5c0-0.6-0.3-0.9-0.9-0.9c-2,0-5.1,3.9-9.3,12.1
		c-0.7,0-1,0-1.3,0c-0.6,0-0.9,0-1.5,0l3.2-5.4c1.7-3.1,2.8-5.1,2.8-6c0-0.3-0.1-0.7-0.6-0.7c-0.7,0-2.2,1.6-4.1,4.8
		c-0.1,0.1-0.1,0.3-0.3,0.3c0,0-0.1,0-0.1-0.1v-0.1l0.3-0.6c2.2-3.1,3.6-4.5,4.4-4.5c0.6,0,0.9,0.1,1.3,0.7c0.3,0.6,0.6,1,0.6,1.6
		c0,0.9-0.6,2.3-1.6,3.9c1.6-2.3,2.9-4.1,3.8-4.8c0.9-0.7,1.6-1.3,2.5-1.3c0.6,0,1,0.1,1.6,0.7c0.3,0.6,0.6,1.3,0.6,2
		c0,0.9-0.7,2.5-2,4.5c-1.3,2.2-2,3.5-2,3.9c0,0.6,0.3,0.9,0.9,0.9c1.3,0,3.5-2.3,6.3-7C120,84.7,120,84.6,120.1,84.7
		C120.1,84.6,120.1,84.7,120.1,84.7z"/>
	<path fill="#FFFFFF" d="M127.2,84.7c0,0,0,0.1-0.1,0.3l-0.9,1.3c-2.5,3.8-4.5,5.8-6,5.8c-0.7,0-1.3-0.1-1.6-0.7
		c-0.3-0.6-0.7-1-0.7-1.7c0-0.9,0.6-2.2,1.5-3.9l3.2-6c0.3,0.1,0.7,0.1,1,0.1s0.9,0,1.6-0.1l-4.7,8.3c-0.7,1.3-1,2.2-1,2.8
		c0,0.7,0.3,1,0.9,1c1.3,0,3.5-2.3,6.6-7C127,84.7,127,84.6,127.2,84.7C127.2,84.6,127.2,84.7,127.2,84.7z M127,75.5
		c0,0.6-0.1,1-0.6,1.5c-0.3,0.6-0.9,0.7-1.3,0.7c-0.6,0-0.9-0.3-0.9-1c0-0.6,0.1-0.9,0.7-1.5c0.3-0.6,0.9-0.7,1.3-0.7
		C126.7,74.5,127,74.9,127,75.5z"/>
	<path fill="#FFFFFF" d="M142,84.7c0,0.3-1,1.7-3.1,4.4c-1.6,2.2-2.9,3.2-3.8,3.2c-0.7,0-1-0.1-1.6-0.7c-0.3-0.6-0.6-1-0.6-2
		c0-0.7,0.1-1.6,0.7-2.5c-1.5,2.2-2.5,3.5-3.2,4.1c-0.7,0.7-1.5,1-2.2,1c-0.7,0-1.3-0.3-1.7-1c-0.6-0.7-0.7-1.5-0.7-2.5
		c0-2.9,1.7-5.4,5.5-7.6c1.6-0.9,2.9-1.5,3.9-1.5c0.9,0,1.3,0.3,1.3,1.3c0,0.1,0,0.6-0.1,1l1-2.2c0.3,0.1,0.7,0.1,1,0.1
		s0.9,0,1.5-0.1l-3.6,6.6c-1.3,2.3-2,3.8-2,4.5c0,0.7,0.1,1,0.7,1c0.6,0,1.5-0.7,2.8-2c1.3-1.5,2.5-3.1,3.8-5.1
		C141.7,84.7,141.7,84.6,142,84.7C141.8,84.6,142,84.7,142,84.7z M136.3,81.1c0-0.7-0.3-1-0.9-1c-1.3,0-2.9,1.3-5.1,3.9
		c-2,2.8-3.1,4.8-3.1,6.6c0,0.9,0.3,1.5,1.3,1.5c1,0,2.5-1.6,4.8-5.1C135.3,84,136.3,81.9,136.3,81.1z"/>
</g>
<polygon fill="#FFFFFF" points="21.1,53.9 17.4,53.9 15.2,56.9 14.1,53.3 10.6,52.2 13.7,50.1 13.6,46.4 16.6,48.6 20.1,47.4 
	18.9,50.9 "/>
<polygon fill="#FFFFFF" points="12.5,66.5 8.8,66.4 6.6,69.4 5.6,65.9 2,64.7 5.1,62.6 5.1,58.9 8,61.1 11.5,60 10.3,63.5 "/>
<polygon fill="#FFFFFF" points="14,81.9 10.3,81.8 8.1,84.8 7,81.3 3.5,80.2 6.5,78.1 6.5,74.4 9.5,76.6 13,75.4 11.8,78.9 "/>
<polygon fill="#FFFFFF" points="36.8,48.7 33.1,48.6 30.9,51.6 29.9,48.1 26.3,46.9 29.4,44.8 29.4,41.1 32.3,43.4 35.8,42.2 
	34.6,45.7 "/>
<polygon fill="#FFFFFF" points="49.7,53.9 46,53.9 43.9,56.9 42.8,53.3 39.3,52.2 42.3,50.1 42.3,46.4 45.2,48.6 48.7,47.4 
	47.5,50.9 "/>
</svg>
