<?xml version="1.0" encoding="utf-8"?>
<!-- Generator: Adobe Illustrator 17.1.0, SVG Export Plug-In . SVG Version: 6.00 Build 0)  -->
<!DOCTYPE svg PUBLIC "-//W3C//DTD SVG 1.1//EN" "http://www.w3.org/Graphics/SVG/1.1/DTD/svg11.dtd">
<svg version="1.1" id="Layer_1" xmlns="http://www.w3.org/2000/svg" xmlns:xlink="http://www.w3.org/1999/xlink" x="0px" y="0px"
	 viewBox="0 36 144 72" enable-background="new 0 36 144 72" xml:space="preserve">
<g>
	<path fill="none" d="M22.5,67"/>
</g>
<g enable-background="new    ">
	<path fill="#FFFFFF" d="M76.7,61.1c0,0.5-0.1,1.1-0.2,1.7c-0.1,0.6-0.2,1-0.4,1c-0.1,0-0.1,0-0.1-0.1v-0.1c0.2-0.7,0.4-1.5,0.4-2.4
		c0-1.2-0.4-2.4-1.1-3.1c-0.7-0.7-1.6-1.1-2.8-1.1c-1.6,0-3.2,0.5-4.8,1.6c1.4,1.2,2.1,2.6,2.1,4.2c0,1.4-0.5,2.5-1.5,3.3
		c-1,0.9-2,1.5-3.2,1.5c-0.5,0-1.1-0.1-1.6-0.4c-0.6-0.2-0.9-0.4-0.9-0.6c0,0,0-0.1,0.1-0.1c0,0,0.1,0,0.2,0.1
		c0.6,0.4,1.2,0.5,1.7,0.5c1.1,0,2-0.5,2.7-1.5c0.7-1,1.1-2.2,1.1-3.6c0-1.2-0.4-2.2-1.2-3.2c-2.1,1.6-4,4.6-5.8,8.7
		c-1.1,2.5-2.1,4.3-3.1,5.4c-1,1.1-2.2,2.1-4,3c-2,1-3.7,1.6-5.3,1.6c-1.2,0-2.4-0.4-3.2-1c-0.9-0.6-1.2-1.4-1.2-2.4
		c0-0.5,0.1-1,0.5-1.4c0.4-0.4,0.6-0.6,1-0.6c0.6,0,0.9,0.4,0.9,1c0,0.4-0.1,0.6-0.2,0.9c-0.2,0.2-0.5,0.4-0.7,0.4
		c-0.5,0-0.7-0.2-0.7-0.9c0-0.2,0-0.4,0-0.4c-0.1,0-0.2,0.2-0.2,0.9c0,0.9,0.4,1.5,1.1,2.1c0.7,0.6,1.7,0.9,3,0.9
		c2.1,0,4-0.9,5.7-2.5c0.7-0.7,1.4-1.5,1.9-2.2c0.6-0.9,1.9-2.8,3.7-5.9c1-1.5,2.1-3.1,3.3-4.7c1.2-1.6,2.4-2.7,3.3-3.3
		c-1.5-1.4-3.7-2-6.6-2c-4,0-7.4,1.6-10.4,4.7c-2.5,2.6-3.6,5-3.6,7.2c0,1.1,0.4,2.1,1,2.7c0.7,0.6,1.6,1,2.7,1c1.9,0,3.8-1,5.9-3
		c2-2,3.1-3.8,3.1-5.7c0-1.5-0.7-2.2-2.1-2.2c-1.4,0-2.8,1.2-4.5,2.8c-1.6,1.7-2.5,3.2-2.5,4.7c0,0.4,0.1,0.7,0.4,1
		c0.2,0.2,0.5,0.4,0.7,0.4c0.1,0,0.2,0,0.2,0.1c0,0.1-0.1,0.1-0.2,0.1c-0.5,0-0.9-0.2-1.1-0.6c-0.4-0.5-0.5-1-0.5-1.6
		c0-1.6,0.9-3.1,2.5-4.6c1.6-1.5,3.3-2.2,5-2.2s2.5,0.9,2.5,2.5c0,2-1,4-3.1,5.9c-2.1,2-4.1,3-6.2,3c-1.4,0-2.4-0.4-3.2-1.2
		c-0.7-0.9-1.2-2-1.2-3.5c0-2.8,1.5-5.4,4.6-7.9c3-2.4,6.4-3.6,10-3.6c2.8,0,5.1,0.6,7.1,2c1.7-1.1,3.5-1.7,5.1-1.7
		c1.2,0,2.4,0.4,3.1,1.2C76.4,58.8,76.7,59.9,76.7,61.1z"/>
	<path fill="#FFFFFF" d="M76.5,72.3c0,0.2-0.7,1.2-2.1,3c-1.1,1.5-2,2.2-2.6,2.2c-0.5,0-0.7-0.1-1.1-0.5c-0.4-0.4-0.4-0.7-0.4-1.4
		c0-0.5,0.1-1.1,0.5-1.7c-1,1.5-1.7,2.4-2.2,2.8c-0.5,0.5-1,0.7-1.5,0.7s-0.9-0.2-1.2-0.7s-0.5-1-0.5-1.7c0-2,1.2-3.7,3.8-5.2
		c1.1-0.6,2-1,2.7-1c0.6,0,0.9,0.2,0.9,0.9c0,0.1,0,0.4-0.1,0.7l0.7-1.5c0.2,0.1,0.5,0.1,0.7,0.1c0.2,0,0.6,0,1-0.1l-2.5,4.5
		c-0.9,1.6-1.4,2.6-1.4,3.1s0.1,0.7,0.5,0.7c0.4,0,1-0.5,1.9-1.4s1.7-2.1,2.6-3.5C76.2,72.3,76.4,72.2,76.5,72.3
		C76.4,72.2,76.5,72.3,76.5,72.3z M72.5,69.8c0-0.5-0.2-0.7-0.6-0.7c-0.9,0-2,0.9-3.5,2.7c-1.4,1.9-2.1,3.3-2.1,4.5
		c0,0.6,0.2,1,0.9,1s1.7-1.1,3.3-3.5C71.9,71.8,72.5,70.4,72.5,69.8z"/>
	<path fill="#FFFFFF" d="M87.9,72.3c0,0.2-0.7,1.2-2.1,3c-1.1,1.5-2,2.2-2.7,2.2c-0.4,0-0.7-0.1-1.1-0.5c-0.2-0.4-0.5-0.7-0.5-1.4
		c0-0.5,0.1-0.9,0.2-1.2c0.1-0.4,0.6-1.1,1.4-2.4c0.7-1.2,1.1-2,1.1-2.4c0-0.4-0.2-0.6-0.6-0.6c-1.4,0-3.5,2.7-6.4,8.3
		c-0.5,0-0.7,0-0.9,0c-0.4,0-0.6,0-1,0l2.2-3.7c1.2-2.1,1.9-3.5,1.9-4.1c0-0.2-0.1-0.5-0.4-0.5c-0.5,0-1.5,1.1-2.8,3.3
		c-0.1,0.1-0.1,0.2-0.2,0.2c0,0-0.1,0-0.1-0.1v-0.1L76,72c1.5-2.1,2.5-3.1,3-3.1c0.4,0,0.6,0.1,0.9,0.5c0.2,0.4,0.4,0.7,0.4,1.1
		c0,0.6-0.4,1.6-1.1,2.7c1.1-1.6,2-2.8,2.6-3.3c0.6-0.5,1.1-0.9,1.7-0.9c0.4,0,0.7,0.1,1.1,0.5c0.2,0.4,0.4,0.9,0.4,1.4
		c0,0.6-0.5,1.7-1.4,3.1c-0.9,1.5-1.4,2.4-1.4,2.7c0,0.4,0.2,0.6,0.6,0.6c0.9,0,2.4-1.6,4.3-4.8C87.6,72.3,87.8,72.2,87.9,72.3
		C87.9,72.2,87.9,72.3,87.9,72.3z"/>
	<path fill="#FFFFFF" d="M93.1,68.8L93,69.1h-1.9l-3.2,5.8c-0.4,0.7-0.6,1.2-0.6,1.7c0,0.5,0.2,0.7,0.6,0.7c0.9,0,2.4-1.6,4.3-4.8
		c0.1-0.1,0.1-0.1,0.1-0.1s0.1,0,0.1,0.1c0,0,0,0.1-0.1,0.2l-0.6,0.9c-1.7,2.6-3.1,4-4.1,4c-0.5,0-0.9-0.1-1.1-0.5
		c-0.2-0.4-0.5-0.7-0.5-1.2c0-0.6,0.2-1.4,0.7-2.2l2.4-4.3h-1.5l0.1-0.2h1.4l1.6-3c0.2,0.1,0.5,0.1,0.9,0.1c0.2,0,0.5,0,0.9-0.1
		l-1.6,3h2.2V68.8z"/>
	<path fill="#FFFFFF" d="M101.1,72.3c0,0.1-0.2,0.5-0.9,1.1c-0.9,0.9-1.6,1.4-2.4,1.4c-0.2,0-0.5,0-0.7-0.1
		c-1.2,1.9-2.5,2.8-3.6,2.8c-0.6,0-1.1-0.2-1.5-0.7s-0.6-1.1-0.6-1.9c0-1.6,1-3.1,2.8-4.6c1.4-1,2.5-1.5,3.3-1.5
		c0.9,0,1.2,0.5,1.2,1.4c0,1.1-0.6,2.6-1.7,4.2c0.2,0.1,0.4,0.1,0.6,0.1c0.4,0,0.9-0.2,1.5-0.6c0.6-0.4,1-1,1.4-1.5
		C100.9,72.3,101,72.2,101.1,72.3C101.1,72.2,101.1,72.3,101.1,72.3z M98.8,70.2c0-0.9-0.4-1.2-1-1.2c-0.9,0-1.9,0.9-3.2,2.6
		s-1.9,3.2-1.9,4.5c0,0.7,0.4,1.1,1,1.1c1,0,2.1-0.9,3.3-2.7c-0.2-0.4-0.4-0.6-0.4-1c0-0.5,0.1-1,0.5-1.5c0.4-0.5,0.7-0.7,1.1-0.7
		c0.1,0,0.2,0.1,0.4,0.2C98.8,71,98.8,70.7,98.8,70.2z"/>
	<path fill="#FFFFFF" d="M112.5,72.3c0,0.2-0.7,1.2-2.1,3c-1.1,1.5-2,2.2-2.7,2.2c-0.4,0-0.7-0.1-1.1-0.5c-0.2-0.4-0.5-0.7-0.5-1.4
		c0-0.5,0.1-0.9,0.2-1.2c0.1-0.4,0.6-1.1,1.4-2.4c0.7-1.2,1.1-2,1.1-2.4c0-0.4-0.2-0.6-0.6-0.6c-1.4,0-3.5,2.7-6.4,8.3
		c-0.5,0-0.7,0-0.9,0c-0.4,0-0.6,0-1,0l2.2-3.7c1.2-2.1,1.9-3.5,1.9-4.1c0-0.2-0.1-0.5-0.4-0.5c-0.5,0-1.5,1.1-2.8,3.3
		c-0.1,0.1-0.1,0.2-0.2,0.2c0,0-0.1,0-0.1-0.1v-0.1l0.2-0.4c1.5-2.1,2.5-3.1,3-3.1c0.4,0,0.6,0.1,0.9,0.5c0.2,0.4,0.4,0.7,0.4,1.1
		c0,0.6-0.4,1.6-1.1,2.7c1.1-1.6,2-2.8,2.6-3.3c0.6-0.5,1.1-0.9,1.7-0.9c0.4,0,0.7,0.1,1.1,0.5c0.2,0.4,0.4,0.9,0.4,1.4
		c0,0.6-0.5,1.7-1.4,3.1c-0.9,1.5-1.4,2.4-1.4,2.7c0,0.4,0.2,0.6,0.6,0.6c0.9,0,2.4-1.6,4.3-4.8C112.4,72.3,112.4,72.2,112.5,72.3
		C112.5,72.2,112.5,72.3,112.5,72.3z"/>
	<path fill="#FFFFFF" d="M117.4,72.3c0,0,0,0.1-0.1,0.2l-0.6,0.9c-1.7,2.6-3.1,4-4.1,4c-0.5,0-0.9-0.1-1.1-0.5
		c-0.2-0.4-0.5-0.7-0.5-1.2c0-0.6,0.4-1.5,1-2.7l2.2-4.1c0.2,0.1,0.5,0.1,0.7,0.1c0.2,0,0.6,0,1.1-0.1l-3.2,5.7
		c-0.5,0.9-0.7,1.5-0.7,1.9c0,0.5,0.2,0.7,0.6,0.7c0.9,0,2.4-1.6,4.5-4.8C117.2,72.3,117.2,72.2,117.4,72.3
		C117.4,72.2,117.4,72.3,117.4,72.3z M117.2,66c0,0.4-0.1,0.7-0.4,1c-0.2,0.4-0.6,0.5-0.9,0.5c-0.4,0-0.6-0.2-0.6-0.7
		c0-0.4,0.1-0.6,0.5-1c0.2-0.4,0.6-0.5,0.9-0.5C117,65.3,117.2,65.6,117.2,66z"/>
	<path fill="#FFFFFF" d="M127.5,72.3c0,0.2-0.7,1.2-2.1,3c-1.1,1.5-2,2.2-2.6,2.2c-0.5,0-0.7-0.1-1.1-0.5c-0.2-0.4-0.4-0.7-0.4-1.4
		c0-0.5,0.1-1.1,0.5-1.7c-1,1.5-1.7,2.4-2.2,2.8c-0.5,0.5-1,0.7-1.5,0.7c-0.5,0-0.9-0.2-1.2-0.7c-0.4-0.5-0.5-1-0.5-1.7
		c0-2,1.2-3.7,3.8-5.2c1.1-0.6,2-1,2.7-1c0.6,0,0.9,0.2,0.9,0.9c0,0.1,0,0.4-0.1,0.7l0.7-1.5c0.2,0.1,0.5,0.1,0.7,0.1s0.6,0,1-0.1
		l-2.5,4.5c-0.9,1.6-1.4,2.6-1.4,3.1s0.1,0.7,0.5,0.7s1-0.5,1.9-1.4c0.9-1,1.7-2.1,2.6-3.5C127.3,72.3,127.3,72.2,127.5,72.3
		C127.4,72.2,127.5,72.3,127.5,72.3z M123.6,69.8c0-0.5-0.2-0.7-0.6-0.7c-0.9,0-2,0.9-3.5,2.7c-1.4,1.9-2.1,3.3-2.1,4.5
		c0,0.6,0.2,1,0.9,1s1.7-1.1,3.3-3.5C122.9,71.8,123.6,70.4,123.6,69.8z"/>
</g>
<g>
	<g>
		<path fill="#FFFFFF" d="M40.9,72.6c0,0,0.4-0.5,0.7-1.4c0.2-0.5,0.5-1,0.7-1.7c0.2-0.7,0.5-1.5,0.7-2.4c0.1-0.9,0.4-2,0.5-3
			c0.1-1.1,0.1-2.4,0.2-3.3c0.1-1.1,0.5-2.2,1.4-3.1l0.7-0.6l0.7-0.5c0.2-0.1,0.6-0.2,0.9-0.4l0.5-0.1h0.2h0.1l0,0l0,0
			c-0.2,0.6,0.4-0.9,0.4-0.7l0,0c-0.7-1.2-1.6-2.5-2.7-3.5c-1.1-1-2.5-1.9-4.1-2.1s-3.1,0-4.6,0.6c-1.4,0.6-2.7,1.4-3.8,2.2
			c-1.1,0.9-2.2,1.9-3.2,2.8c-0.9,1-1.7,1.9-2.4,2.8v0.5v0.2c0,0,0-0.1-0.1-0.1l-0.1-0.4c0-0.1-0.2-0.1-0.4-0.2
			c-0.5-0.2-1-0.5-1.5-0.6c-0.5-0.2-1-0.4-1.5-0.5c-0.5-0.1-1-0.4-1.5-0.5l0,0c-3.2-1-5.7-1-7.1-0.9c-0.4,0-0.7,0-0.7,0
			s-0.2,0-0.9,0.1c-0.9,0.1-1.6,0.2-1.6,0.6c-1.6,0.7-3,2.2-3.6,3.8c-0.7,1.6-1,3.3-1,5.1c-0.1,1.7,0.1,3.5,0.7,5.2
			c0.5,1.6,1.7,3.6,1.9,3.7c0.5,1.5,1.1,3.7,1.2,4.1c0.1,0.5,0.7,2.8,1.6,3c0.9,0.2,1.2-1.5,1.2-1.5s0.4,0.6,1.2,1.4
			c0.4,0.4,0.9,0.4,1.4,0.4c1,2.7,3.3,3.7,5.2,4c0.7,1,1.7,2.1,3.8,3.7c1,0.7,1.9,1.2,2.6,1.7v0.1c0.1,0.2,0.2,0.5,0.5,0.7l0.2,0.4
			c0.1,0.1,0.4,0.4,0.5,0.5c0.9,0.6,1.7,1.2,2.8,1.7c1,0.5,2.1,0.9,3.1,1.1l0.4,0.1c0.1,0,0.2,0.1,0.4,0c0.1-0.2,0.4-0.5,0.5-0.6
			c0.2-0.5,0.5-0.9,0.7-1.4c0.4-1.1,0.2-1.9-0.1-2.5c-0.4-0.6-1-1-1.5-1.5c0.1-0.6,0.2-1.1,0.6-1.5c0.4-0.5,0.9-0.5,1.6-0.5l1,0.1
			c0-1.5-0.6-2.4-1.2-2.8c-0.6-0.5-1.1-0.6-1.1-0.6c0.1-0.6,0.7-1.2,1.1-1.4c0.4-0.2,0.9-0.5,0.9-0.5c0.7,0.9,1.4,1.4,2.4,1.2
			c0.9-0.1,2-0.6,3-1c1-0.4,1.9-0.5,2.4-0.4c0.6,0,0.9,0.2,0.9,0.2c0.1-0.7,0-1.2-0.2-1.5c-0.4-0.2-1-0.4-1.5-0.4c-0.5,0-1,0-1.2,0
			c-0.4,0-0.5,0.1-0.5,0.1c0-0.1,0-0.2,0-0.2c-0.9-1.1-2.7-2.1-3.7-2.5c-1.1-0.5-2.4-1.2-3-2.4c-0.4-0.6-0.4-1.1-0.5-1.6
			c0-0.5,0.1-1,0.2-1.2c0.4-0.6,0.7-1,0.7-1s-0.6,0-1.2,0.6c-0.4,0.2-0.7,0.7-0.9,1.4c-0.2,0.6-0.2,1.5,0,2.5
			c0.1,0.7,0.5,1.2,0.9,1.7c0.2,0.6,0.6,0.9,1,1.2c0.4,0.5,0.6,0.5,0.9,0.7c0.2,0.2,0.5,0.5,0.7,0.7l0.1,0.1c0,0,0.1,0.1,0,0.1
			c-0.1,0.1-0.4,0.2-0.5,0.4c-0.4,0.2-0.9,0.5-1.2,0.6c-0.4,0.1-0.5,0.2-0.7,0.4c-0.1,0.1-0.5,0.5-0.7,0.7c-0.2,0.4-0.4,0.6-0.6,1
			c-0.1,0.2-0.1,0.5-0.1,0.7c0,1.1-0.1,2.1-0.1,2.4c-0.1-1.9-1-2.7-1.4-3.5c-0.2-0.4-0.4-0.6-0.4-0.9c-0.1-0.2-0.1-0.4-0.1-0.4
			s0,0,0,0.2c0,0.1-0.1,0.2-0.2,0.5c0,0-0.1,0.1-0.1,0.2S33.3,84,33.1,84c-0.2,0.1-0.5,0.2-0.9,0.4c-2.6,1.1-4.8,1.1-6.6,0.7
			c-2.4-3.8-5.1-4-6.9-3.8c-0.1-0.6-0.7-1.1-1.1-1.6c-0.5-0.4-0.9-0.6-0.9-0.6c0.2-0.2,2.4-2-0.5-2.1c-1.4-0.1-2.7-0.7-3.8-1.4
			c-0.2-0.4-0.5-0.6-0.7-1l-0.4-0.5l-0.1-1.5c-0.1-0.1-0.1-0.2-0.2-0.4l-0.4-0.7c-1-1.9-1.4-4-1.4-6.1c0-2.1,0.2-4.3,1.4-5.9
			c1-1.7,2.8-2.8,4.8-3.1c0.6-0.1,3.5-0.4,7.3,0.7l0,0c0.5,0.1,1,0.2,1.5,0.5c0.2,0.1,0.6,0.2,0.9,0.4c0.1,0.1,0.2,0,0.5,0.2
			l0.4,0.6c0.6,0.7,1.2,1.2,2.4,3.2l0.2,0.4l0.2,0.5l0.2,0.5c0,0.1,0.1,0.1,0.1,0.1v0.1l0.2,0.7c0,0.1,0.1,0.2,0.1,0.4v-0.4
			l-0.1-0.9v-0.1v-0.4v-0.6c0-0.4,0-0.6,0-1s0-0.5,0-0.7l0.1-0.6c0.1-0.4,0.1-0.7,0.2-1l0.2-0.9l0.1-0.9v-0.2l0.1-0.1l0.1-0.2
			c0.2-0.2,0.5-0.5,0.7-0.9c1-1,2-1.9,3.1-2.7c2.2-1.6,4.8-3.1,7.7-2.7c1.4,0.2,2.6,0.9,3.6,1.9c1,0.9,1.9,2.1,2.5,3.2l0,0
			c0,0.1,0.5-1.1,0.2-0.6l0,0l0,0h-0.1l-0.2,0.1l-0.5,0.2c-0.4,0.1-0.6,0.2-1,0.4c-0.2,0.2-0.6,0.4-0.9,0.6
			c-0.2,0.2-0.5,0.5-0.7,0.7c-1,1-1.5,2.4-1.5,3.6c-0.1,1.2-0.1,2.4-0.1,3.5c-0.1,1.1-0.2,2.1-0.4,3c-0.2,0.9-0.4,1.7-0.6,2.4
			c-0.1,0.7-0.5,1.2-0.6,1.7C41.1,72,40.9,72.5,40.9,72.6z"/>
	</g>
</g>
</svg>
